<?xml version="1.0" encoding="UTF-8"?>
<svg width="872px" height="619px" viewBox="0 0 872 619" version="1.1" xmlns="http://www.w3.org/2000/svg" xmlns:xlink="http://www.w3.org/1999/xlink">
    <!-- Generator: Sketch 52.5 (67469) - http://www.bohemiancoding.com/sketch -->
    <title>Desktop HD</title>
    <desc>Created with Sketch.</desc>
    <g id="Desktop-HD" stroke="none" stroke-width="1" fill="none" fill-rule="evenodd">
        <path d="M579.5,94.5312569 L579.5,333.401227 L715.5,341.469458 L715.5,102.783026 L579.5,94.5312569 Z" id="Rectangle-2" stroke="#979797" fill-rule="nonzero"></path>
        <circle id="Oval-4" fill="#D8D8D8" fill-rule="nonzero" cx="464" cy="233" r="15"></circle>
        <path id="Line-15" d="M627,231 L479.5,231 L479,231 L479,230 L479.5,230 L627,230 L627,226 L636,230.5 L627,235 L627,231 Z" fill="#979797" fill-rule="nonzero"></path>
        <path id="Line-15" d="M610.720275,161.416516 L480.233797,230.441972 L479.791825,230.675769 L479.324231,229.791825 L479.766203,229.558028 L610.252682,160.532572 L608.382309,156.996797 L618.441972,156.766203 L612.590649,164.95229 L610.720275,161.416516 Z" fill="#979797" fill-rule="nonzero"></path>
        <path id="Line-15" d="M580.578146,122.565326 L480.366168,230.340472 L480.025696,230.70664 L479.29336,230.025696 L479.633832,229.659528 L579.84581,121.884382 L576.916467,119.160607 L586.340472,115.633832 L583.507489,125.289101 L580.578146,122.565326 Z" fill="#979797" fill-rule="nonzero"></path>
        <path id="Line-15" d="M593.125136,324.976432 L479.681809,231.385687 L479.296122,231.067495 L479.932505,230.296122 L480.318191,230.614313 L593.761519,324.205058 L596.30705,321.119565 L600.385687,330.318191 L590.579604,328.061925 L593.125136,324.976432 Z" fill="#979797" fill-rule="nonzero"></path>
        <path id="Line-15" d="M615.945026,287.240039 L479.810433,231.462671 L479.347762,231.273104 L479.726896,230.347762 L480.189567,230.537329 L616.324159,286.314697 L617.840692,282.613328 L624.462671,290.189567 L614.428493,290.941407 L615.945026,287.240039 Z" fill="#979797" fill-rule="nonzero"></path>
        <text id="User" font-family="Avenir-Book, Avenir" font-size="24" font-weight="normal" fill="#000000">
            <tspan x="416" y="206">User</tspan>
        </text>
        <path id="Line-16" d="M576,410 L509.5,410 L509,410 L509,409 L509.5,409 L576,409 L576,405 L585,409.5 L576,414 L576,410 Z" fill="#979797" fill-rule="nonzero"></path>
        <text id="User’s-Hand" font-family="Avenir-Book, Avenir" font-size="24" font-weight="normal" fill="#000000">
            <tspan x="600" y="414">User’s Hand</tspan>
        </text>
        <text id="As-the-angle-the-han" font-family="Avenir-Book, Avenir" font-size="20" font-weight="normal" fill="#000000">
            <tspan x="452" y="493">As the angle the hand makes with the </tspan>
            <tspan x="452" y="520">mirror increases, the area reachable by </tspan>
            <tspan x="452" y="547">the user decreases and becomes </tspan>
            <tspan x="452" y="574">inaccesible. </tspan>
        </text>
        <rect id="Rectangle-5" stroke="#979797" fill-rule="nonzero" x="91.5" y="52.5" width="236" height="416"></rect>
        <path d="M76,261 L362,261" id="Line" stroke="#979797" stroke-linecap="square" fill-rule="nonzero"></path>
        <path d="M93,184.708224 C131.524407,164.236075 170.691074,154 210.5,154 C250.308926,154 289.475593,165.928352 328,189.785057 L328,323.079014 C288.833333,345.026338 249.666667,356 210.5,356 C171.333333,356 132.166667,345.026338 93,323.079014 L93,184.708224 Z" id="Path-19" fill="#73D69B" fill-rule="nonzero"></path>
        <text id="Natural" font-family="Avenir-Medium, Avenir" font-size="24" font-weight="400" fill="#FFFFFF">
            <tspan x="129" y="314">Natural</tspan>
        </text>
        <path d="M92,200 L92,132.161491 C130.430369,111.387164 169.763702,101 210,101 C250.236298,101 289.569631,111.387164 328,132.161491 L328,200 C288.666667,170.918828 249.333333,156.378243 210,156.378243 C170.666667,156.378243 131.333333,170.918828 92,200 Z" id="Path-20" fill="#F5D98E" fill-rule="nonzero"></path>
        <path d="M91,434 L91,349.715792 C129.593209,323.905264 169.093209,311 209.5,311 C249.906791,311 289.406791,323.905264 328,349.715792 L328,434 C288.5,404.048879 249,389.073318 209.5,389.073318 C170,389.073318 130.5,404.048879 91,434 Z" id="Path-20" fill="#F5D98E" fill-rule="nonzero" transform="translate(209.500000, 372.500000) scale(1, -1) translate(-209.500000, -372.500000) "></path>
        <path d="M91,132 L91,53 L328,53 L328,132 C288.5,110.533559 249,99.8003389 209.5,99.8003389 C170,99.8003389 130.5,110.533559 91,132 Z" id="Path-21" fill="#F69679" fill-rule="nonzero"></path>
        <path d="M91,469 L91,390 L328,390 L328,469 C288.5,447.533559 249,436.800339 209.5,436.800339 C170,436.800339 130.5,447.533559 91,469 Z" id="Path-21" fill="#F69679" fill-rule="nonzero" transform="translate(209.500000, 429.500000) scale(1, -1) translate(-209.500000, -429.500000) "></path>
        <text id="Stretching" font-family="Avenir-Medium, Avenir" font-size="24" font-weight="400" fill="#FFFFFF">
            <tspan x="129" y="395">Stretching</tspan>
        </text>
        <text id="Hard" font-family="Avenir-Medium, Avenir" font-size="24" font-weight="400" fill="#FFFFFF">
            <tspan x="106" y="453">Hard</tspan>
        </text>
        <text id="Mirror" font-family="Avenir-Book, Avenir" font-size="20" font-weight="normal" fill="#000000">
            <tspan x="648" y="136">Mirror</tspan>
        </text>
    </g>
</svg>