<svg xmlns="http://www.w3.org/2000/svg" xmlns:xlink="http://www.w3.org/1999/xlink" version="1.1" x="0px" y="0px" viewBox="0 0 96 120" enable-background="new 0 0 96 96" xml:space="preserve"><g><g><path fill="#000000" d="M81,39H15l6-6h3c0-9.9,8.1-18,18-18c0-1.7,1.3-3,3-3h6c1.7,0,3,1.3,3,3    c9.9,0,18,8.1,18,18h3L81,39z M54,33h15c0-8.3-6.7-15-15-15V33z M42,33V18c-8.3,0-15,6.7-15,15H42z"/></g></g><g><g><path fill="#000000" d="M81,42v24h-9c0,9-18,21-24,21S24,75,24,66h-9V42H81z M69,66H27c0,7.5,16.5,18,21,18    S69,73.5,69,66z"/></g></g><text x="0" y="111" fill="#000000" font-size="5px" font-weight="bold" font-family="'Helvetica Neue', Helvetica, Arial-Unicode, Arial, Sans-serif">Created by Ali Riza Saçan</text><text x="0" y="116" fill="#000000" font-size="5px" font-weight="bold" font-family="'Helvetica Neue', Helvetica, Arial-Unicode, Arial, Sans-serif">from the Noun Project</text></svg>