<?xml version="1.0" encoding="UTF-8"?>
<svg width="598px" height="207px" viewBox="0 0 598 207" version="1.1" xmlns="http://www.w3.org/2000/svg" xmlns:xlink="http://www.w3.org/1999/xlink">
    <!-- Generator: Sketch 52.5 (67469) - http://www.bohemiancoding.com/sketch -->
    <title>Body Weight At Base</title>
    <desc>Created with Sketch.</desc>
    <g id="Body-Weight-At-Base" stroke="none" stroke-width="1" fill="none" fill-rule="evenodd">
        <rect fill="#FFFFFF" x="0" y="0" width="598" height="207"></rect>
        <g id="Group" transform="translate(18.000000, 54.000000)">
            <path d="M0.5,55.5 L159.5,55.5" id="Line-8" stroke="#979797" stroke-linecap="square" fill-rule="nonzero"></path>
            <path d="M170.5,55.5 L329.5,55.5" id="Line-8" stroke="#979797" stroke-linecap="square" fill-rule="nonzero"></path>
            <text id="ON-HEELS" font-family="Avenir-Book, Avenir" font-size="6" font-weight="normal" fill="#000000">
                <tspan x="61.938" y="6">ON HEELS </tspan>
            </text>
            <text id="ON-TOES" font-family="Avenir-Book, Avenir" font-size="6" font-weight="normal" fill="#000000">
                <tspan x="233.159" y="6">ON TOES </tspan>
            </text>
            <path d="M10.5,33.5 L24.5,54.5" id="Line" stroke="#979797" stroke-linecap="square" fill-rule="nonzero"></path>
            <path d="M205.5,16.5 L205.5,37.5" id="Line" stroke="#979797" stroke-linecap="square" fill-rule="nonzero"></path>
            <path d="M242.5,54.5 L205.5,37.5" id="Line" stroke="#979797" stroke-linecap="square" fill-rule="nonzero"></path>
            <path d="M275.5,16.5 L275.5,37.5" id="Line" stroke="#979797" stroke-linecap="square" fill-rule="nonzero"></path>
            <path d="M312.5,54.5 L275.5,37.5" id="Line" stroke="#979797" stroke-linecap="square" fill-rule="nonzero"></path>
            <path d="M69.5,28.5 L24.5,54.5" id="Line" stroke="#979797" stroke-linecap="square" fill-rule="nonzero"></path>
            <path d="M90.5,33.5 L104.5,54.5" id="Line" stroke="#979797" stroke-linecap="square" fill-rule="nonzero"></path>
            <path d="M149.5,28.5 L104.5,54.5" id="Line" stroke="#979797" stroke-linecap="square" fill-rule="nonzero"></path>
            <text id="A" font-family="Avenir-Book, Avenir" font-size="6" font-weight="normal" fill="#000000">
                <tspan x="103.442" y="64">A</tspan>
            </text>
            <text id="B" font-family="Avenir-Book, Avenir" font-size="6" font-weight="normal" fill="#000000">
                <tspan x="23.11" y="64">B</tspan>
            </text>
            <text id="B" font-family="Avenir-Book, Avenir" font-size="6" font-weight="normal" fill="#000000">
                <tspan x="199.11" y="41">B</tspan>
            </text>
            <text id="A" font-family="Avenir-Book, Avenir" font-size="6" font-weight="normal" fill="#000000">
                <tspan x="269.442" y="41">A</tspan>
            </text>
        </g>
        <text id="Body-weight-at-the-b" opacity="0.5" font-family="Avenir-Book, Avenir" font-size="14" font-weight="normal" fill="#000000">
            <tspan x="92.036" y="183">Body weight at the base</tspan>
        </text>
        <text id="Split-step" opacity="0.5" font-family="Avenir-Book, Avenir" font-size="14" font-weight="normal" fill="#000000">
            <tspan x="472.226" y="183">Split step</tspan>
        </text>
        <g id="Group" transform="translate(449.000000, 15.000000)">
            <g id="Court">
                <g id="Group">
                    <g id="Court" transform="translate(0.000000, 13.000000)" fill-rule="nonzero" stroke="#979797">
                        <rect id="Rectangle" x="0.5" y="0.5" width="104" height="129"></rect>
                        <rect id="Rectangle-2" x="0.5" y="0.5" width="104" height="37"></rect>
                        <rect id="Rectangle-3" x="0.5" y="111.5" width="104" height="18"></rect>
                        <rect id="Rectangle-4" x="0.5" y="0.5" width="17" height="129"></rect>
                        <rect id="Rectangle-4" x="87.5" y="0.5" width="17" height="129"></rect>
                        <rect id="Rectangle-5" x="0.5" y="37.5" width="51" height="92"></rect>
                    </g>
                    <text id="NET" font-family="Avenir-Book, Avenir" font-size="10" font-weight="normal" fill="#000000">
                        <tspan x="41.775" y="10">NET</tspan>
                    </text>
                </g>
            </g>
            <path d="M39.5,81.5 L64.5,81.5" id="Line" stroke="#979797" stroke-linecap="square" fill-rule="nonzero"></path>
            <text id="B" font-family="Avenir-Book, Avenir" font-size="10" font-weight="normal" fill="#000000">
                <tspan x="32.85" y="90">B</tspan>
            </text>
            <text id="A" font-family="Avenir-Book, Avenir" font-size="10" font-weight="normal" fill="#000000">
                <tspan x="65.57" y="90">A</tspan>
            </text>
            <path id="Line-2" d="M30.9087533,74 L37.2451306,77.5642122 L37.6809184,77.8093429 L37.1906571,78.6809184 L36.7548694,78.4357878 L28.7548694,73.9357878 L27.9801356,73.5 L28.7548694,73.0642122 L36.7548694,68.5642122 L37.1906571,68.3190816 L37.6809184,69.1906571 L37.2451306,69.4357878 L30.9087533,73 L32,73 L32.5,73 L32.5,74 L32,74 L30.9087533,74 Z M70.0912467,73 L63.7548694,69.4357878 L63.3190816,69.1906571 L63.8093429,68.3190816 L64.2451306,68.5642122 L72.2451306,73.0642122 L73.0198644,73.5 L72.2451306,73.9357878 L64.2451306,78.4357878 L63.8093429,78.6809184 L63.3190816,77.8093429 L63.7548694,77.5642122 L70.0912467,74 L70,74 L69.5,74 L69.5,73 L70,73 L70.0912467,73 Z M34,74 L33.5,74 L33.5,73 L34,73 L36,73 L36.5,73 L36.5,74 L36,74 L34,74 Z M38,74 L37.5,74 L37.5,73 L38,73 L40,73 L40.5,73 L40.5,74 L40,74 L38,74 Z M42,74 L41.5,74 L41.5,73 L42,73 L44,73 L44.5,73 L44.5,74 L44,74 L42,74 Z M46,74 L45.5,74 L45.5,73 L46,73 L48,73 L48.5,73 L48.5,74 L48,74 L46,74 Z M50,74 L49.5,74 L49.5,73 L50,73 L52,73 L52.5,73 L52.5,74 L52,74 L50,74 Z M54,74 L53.5,74 L53.5,73 L54,73 L56,73 L56.5,73 L56.5,74 L56,74 L54,74 Z M58,74 L57.5,74 L57.5,73 L58,73 L60,73 L60.5,73 L60.5,74 L60,74 L58,74 Z M62,74 L61.5,74 L61.5,73 L62,73 L64,73 L65,73 L65.5,73 L65.5,74 L65,74 L64,74 L62,74 Z M66,74 L65.5,74 L65.5,73 L66,73 L68,73 L68.5,73 L68.5,74 L68,74 L66,74 Z" fill="#979797" fill-rule="nonzero"></path>
        </g>
    </g>
</svg>